HIERARCHY
ROOT Hips
{
	OFFSET	0.00	0.00	0.00
	CHANNELS 6 Xposition Yposition Zposition Zrotation Xrotation Yrotation
	JOINT LeftUpLeg
	{
		OFFSET	 0.126116	-0.014019	-0.065224
		CHANNELS 3 Zrotation Xrotation Yrotation
		JOINT LeftLeg
		{
			OFFSET	 0.000000	 0.000000	 0.569914
			CHANNELS 3 Zrotation Xrotation Yrotation
			JOINT LeftFoot
			{
				OFFSET	 0.000000	 0.000000	 0.544423
				CHANNELS 3 Zrotation Xrotation Yrotation
				JOINT LeftToeBase
				{
					OFFSET	 0.000000	 0.000000	 0.207117
					CHANNELS 3 Zrotation Xrotation Yrotation
					End Site
					{
						OFFSET	 0.000000	 0.000000	 0.207117
					}
				}
			}
		}
	}
	JOINT RightUpLeg
	{
		OFFSET	-0.124023	-0.008373	-0.065224
		CHANNELS 3 Zrotation Xrotation Yrotation
		JOINT RightLeg
		{
			OFFSET	 0.000000	 0.000000	 0.570047
			CHANNELS 3 Zrotation Xrotation Yrotation
			JOINT RightFoot
			{
				OFFSET	 0.000000	 0.000000	 0.544354
				CHANNELS 3 Zrotation Xrotation Yrotation
				JOINT RightToeBase
				{
					OFFSET	 0.000000	 0.000000	 0.207540
					CHANNELS 3 Zrotation Xrotation Yrotation
					End Site
					{
						OFFSET	 0.000000	 0.000000	 0.207540
					}
				}
			}
		}
	}
	JOINT Spine
	{
		OFFSET	 0.000184	-0.007763	 0.117403
		CHANNELS 3 Zrotation Xrotation Yrotation
		JOINT Spine1
		{
			OFFSET	 0.000000	 0.000000	 0.137269
			CHANNELS 3 Zrotation Xrotation Yrotation
			JOINT Spine2
			{
				OFFSET	 0.000000	 0.000000	 0.156879
				CHANNELS 3 Zrotation Xrotation Yrotation
				JOINT LeftShoulder
				{
					OFFSET	 0.080501	-0.002496	 0.160144
					CHANNELS 3 Zrotation Xrotation Yrotation
					JOINT LeftArm
					{
						OFFSET	 0.000000	 0.000000	 0.164363
						CHANNELS 3 Zrotation Xrotation Yrotation
						JOINT LeftForeArm
						{
							OFFSET	 0.000000	 0.000000	 0.364576
							CHANNELS 3 Zrotation Xrotation Yrotation
							JOINT LeftHand
							{
								OFFSET	 0.000000	 0.000000	 0.360812
								CHANNELS 3 Zrotation Xrotation Yrotation
								JOINT LeftHandIndex1
								{
									OFFSET	 0.000000	 0.000000	 0.086006
									CHANNELS 3 Zrotation Xrotation Yrotation
									JOINT LeftHandIndex2
									{
										OFFSET	 0.000000	 0.000000	 0.047236
										CHANNELS 3 Zrotation Xrotation Yrotation
										JOINT LeftHandIndex3
										{
											OFFSET	-0.004284	-0.000551	 0.038166
											CHANNELS 3 Zrotation Xrotation Yrotation
											End Site
											{
												OFFSET	-0.004284	-0.000551	 0.038166
											}
										}
									}
								}
							}
						}
					}
				}
				JOINT Neck
				{
					OFFSET	 0.000000	 0.000000	 0.176489
					CHANNELS 3 Zrotation Xrotation Yrotation
					JOINT Head
					{
						OFFSET	 0.000000	-0.001747	 0.077940
						CHANNELS 3 Zrotation Xrotation Yrotation
						End Site
						{
							OFFSET	 0.000000	-0.001747	 0.077940
						}
					}
				}
				JOINT RightShoulder
				{
					OFFSET	-0.080363	 0.000306	 0.159706
					CHANNELS 3 Zrotation Xrotation Yrotation
					JOINT RightArm
					{
						OFFSET	 0.000000	 0.000000	 0.164196
						CHANNELS 3 Zrotation Xrotation Yrotation
						JOINT RightForeArm
						{
							OFFSET	 0.000000	 0.000000	 0.365611
							CHANNELS 3 Zrotation Xrotation Yrotation
							JOINT RightHand
							{
								OFFSET	 0.000000	 0.000000	 0.360648
								CHANNELS 3 Zrotation Xrotation Yrotation
								JOINT RightHandIndex1
								{
									OFFSET	 0.000000	 0.000000	 0.069977
									CHANNELS 3 Zrotation Xrotation Yrotation
									JOINT RightHandIndex2
									{
										OFFSET	 0.000000	 0.000000	 0.052305
										CHANNELS 3 Zrotation Xrotation Yrotation
										JOINT RightHandIndex3
										{
											OFFSET	 0.009002	-0.000782	 0.042196
											CHANNELS 3 Zrotation Xrotation Yrotation
											End Site
											{
												OFFSET	 0.009002	-0.000782	 0.042196
											}
										}
									}
								}
							}
						}
					}
				}
			}
		}
	}
}
MOTION
Frames:    7
Frame Time: 0.03333334
-0.057544	-2.210385	 1.242015	 3.660890	-1.915072	-3.470205	 16.752500	-7.022531	-173.758200	-0.033214	-29.760540	-0.230058	 25.169960	 71.530010	-27.834360	-2.372273	 31.125300	-0.058879	-17.806480	-28.710330	-174.804900	 10.035130	-55.416630	 8.980827	 6.001512	 62.828220	 0.094137	 2.357520	 33.212250	 0.108160	 22.412760	 8.050474	 1.582907	 0.395840	 5.595101	 1.783361	-4.234066	-6.530177	-2.507328	-93.688320	 58.757540	 175.944800	 13.124740	 33.039360	-41.217830	 7.317032	-0.622144	-4.643948	 25.286960	-35.795590	 10.353850	-4.868553	 19.298620	-2.797662	-3.891164	 21.349330	 2.212543	-4.804132	 5.594128	 0.144123	-0.147006	-4.989123	 0.147342	-6.294245	 0.199457	 2.289440	 89.863230	 61.488510	-179.807700	-19.967850	 50.277500	 10.957630	-8.098387	-3.163481	 12.578920	-28.948990	-21.764390	-8.569866	 6.308511	 26.269650	-0.572509	 1.696947	 46.180250	-6.824341	 0.289779	 25.303950	 3.689861
-0.060431	-2.274862	 1.243088	 4.725697	-1.439791	-3.446548	 15.453600	-3.879769	-174.910100	 0.707632	-28.344590	 0.168502	 24.114120	 73.500240	-27.191260	-2.370199	 31.480750	-0.066891	-20.854280	-32.421710	-176.959500	 9.694978	-47.705440	 7.770902	 2.313242	 63.491320	 4.053278	 2.358516	 33.066050	 0.104763	 17.248140	 7.845843	 1.450153	 0.261330	 5.802331	 1.831070	-4.751537	-6.782071	-2.645961	-93.888500	 58.961150	 175.494900	 11.387180	 29.666640	-42.756150	 8.925644	-1.185776	-6.473900	 24.708340	-31.029130	 6.073074	-4.869172	 19.246080	-2.786501	-3.885978	 21.415870	 2.207267	-4.808260	 5.545473	 0.146969	-0.090321	-5.057920	 0.176798	-6.579811	 0.133605	 2.062840	 89.794610	 61.629580	-179.970200	-19.908700	 52.313650	 7.675981	-11.262820	-4.511080	 15.101300	-28.811450	-15.164670	-5.983876	 6.296700	 25.173010	-0.550656	 1.844148	 45.032690	-6.956225	 0.484530	 24.458990	 3.589482
-0.063700	-2.338902	 1.239260	 5.704855	-0.703743	-3.511101	 14.380040	-1.216524	-175.897700	 1.130917	-27.270720	 0.356589	 22.822350	 75.429080	-25.994410	-2.368493	 31.765090	-0.073331	-23.979720	-35.003620	-179.599100	 9.355211	-37.675250	 6.221433	-1.905910	 62.919650	 8.028225	 2.359014	 32.994220	 0.103084	 11.688970	 7.400194	 1.283225	 0.183769	 6.045097	 2.025258	-5.272529	-7.053347	-2.834848	-94.110890	 59.018950	 175.013100	 9.481197	 26.404420	-44.073320	 11.331960	-1.944357	-8.235794	 24.769020	-25.405040	 2.153345	-4.864137	 19.381820	-2.796803	-3.874454	 21.563200	 2.195567	-4.804523	 5.589606	 0.144389	-0.038404	-5.105371	 0.232092	-6.890331	 0.093810	 1.864890	 89.714490	 61.727860	 179.838200	-19.523700	 54.041840	 3.917676	-14.479870	-6.666839	 18.617150	-28.781000	-8.029129	-3.149676	 6.276843	 23.589630	-0.551106	 2.037467	 43.441920	-7.128095	 0.793419	 23.091940	 3.435128
-0.067519	-2.403368	 1.232473	 6.310209	 0.107429	-3.810611	 13.705540	 1.351891	-176.709000	 1.371977	-26.529030	 0.455292	 21.443810	 77.883190	-24.579120	-2.366216	 32.133420	-0.081719	-25.989210	-36.322810	 178.014600	 9.328165	-27.201220	 4.648518	-4.643465	 61.328990	 9.815001	 2.360739	 32.736850	 0.097128	 6.030622	 6.779835	 1.319374	 0.109907	 6.293303	 2.220673	-5.748918	-7.252446	-3.039188	-94.320280	 58.967200	 174.574200	 7.793271	 23.754030	-45.089830	 13.467120	-2.843778	-9.861202	 24.781980	-19.531310	-0.384444	-4.850538	 19.708470	-2.814226	-3.856274	 21.794520	 2.177093	-4.794044	 5.712904	 0.137156	-0.009856	-5.164967	 0.298174	-7.240429	 0.063344	 1.779117	 89.592770	 61.876970	 179.544900	-18.747820	 55.328370	 1.107875	-18.150120	-8.396310	 20.189610	-28.964430	-0.653630	-0.748156	 6.246352	 21.707980	-0.604081	 2.215631	 41.885600	-7.285028	 1.199256	 21.246080	 3.241728
-0.072133	-2.463793	 1.222442	 6.543563	 0.609327	-4.177358	 13.330820	 4.167912	-177.551400	 1.505926	-25.922920	 0.504196	 18.426920	 80.167970	-21.428370	-2.360892	 32.951920	-0.100548	-25.950580	-39.740930	 176.425400	 9.399481	-22.955550	 3.997098	-5.213635	 64.969560	 9.387850	 2.355644	 33.480330	 0.114426	 0.531095	 6.245760	 1.505632	 0.070208	 6.804170	 2.304194	-6.121307	-7.448179	-3.182667	-94.449810	 58.891080	 174.310500	 6.333605	 22.024180	-46.012630	 15.254590	-3.795261	-11.267080	 24.131690	-13.918380	-2.292123	-4.831795	 20.098360	-2.822020	-3.831897	 22.102530	 2.152337	-4.776408	 5.920112	 0.124951	 0.014546	-5.249734	 0.335698	-7.542462	 0.018191	 1.702993	 89.478060	 62.000320	 179.265800	-17.558320	 56.135790	-1.334550	-21.888310	-9.824224	 20.882760	-28.906090	 6.042801	 0.696564	 6.208537	 19.681700	-0.682887	 2.451656	 39.679020	-7.490513	 1.637633	 19.189930	 3.045417
-0.077403	-2.523186	 1.211675	 6.751956	 0.763565	-4.459769	 12.945640	 7.044483	-178.552300	 1.664692	-25.665290	 0.568312	 12.702800	 81.831120	-15.565500	-2.348461	 34.674100	-0.141067	-25.519310	-43.515470	 175.365900	 9.842618	-22.779770	 4.144668	-4.649694	 69.427750	 7.784381	 2.343405	 35.104380	 0.153044	-5.028944	 6.104192	 1.651535	 0.010322	 6.916324	 2.388969	-6.423543	-7.518045	-3.307996	-94.518690	 58.879520	 174.166000	 5.110894	 21.143650	-46.500320	 17.190280	-4.763244	-12.475260	 23.150180	-9.604400	-4.104081	-4.833308	 20.383230	-2.915062	-3.805218	 22.436750	 2.125241	-4.751328	 6.213717	 0.107536	 0.064841	-5.341332	 0.350561	-7.761472	 0.020822	 1.504964	 89.395740	 62.009610	 179.066700	-16.094850	 56.564720	-3.807073	-25.286630	-11.161250	 21.434610	-28.161580	 11.377640	 1.292383	 6.176914	 17.609330	-0.709169	 2.714988	 37.003700	-7.716090	 2.072214	 17.089820	 2.864382
-0.083605	-2.591500	 1.203117	 7.024165	 0.722681	-4.453245	 12.390440	 10.196940	-179.991400	 2.002516	-25.560930	 0.712000	 2.533478	 82.296380	-5.262990	-2.317292	 38.200290	-0.228391	-25.264890	-43.944370	 174.615900	 10.118300	-22.001270	 4.117087	-4.186562	 69.857560	 6.795466	 2.336649	 35.921100	 0.172915	-11.204660	 6.155114	 1.602769	-0.163577	 6.314667	 2.333560	-6.699132	-7.267415	-3.359986	-94.534880	 59.036010	 174.105700	 4.124368	 20.923640	-46.114880	 19.283900	-5.798496	-13.587600	 21.729140	-6.771183	-5.791901	-4.858506	 20.543210	-3.108867	-3.778836	 22.764430	 2.098445	-4.715057	 6.636162	 0.082237	 0.137088	-5.432996	 0.320907	-7.911938	 0.096563	 1.258107	 89.357350	 61.836050	 178.980400	-14.620520	 56.607790	-5.635291	-28.700850	-11.774450	 20.985940	-26.683950	 15.411370	 1.178513	 6.172616	 15.388620	-0.583093	 2.929293	 34.644270	-7.896355	 2.516189	 14.883680	 2.694083
